<svg width="14.000000" height="14.000000" viewBox="0 0 14 14" fill="none" xmlns="http://www.w3.org/2000/svg" xmlns:xlink="http://www.w3.org/1999/xlink">
	<desc>
			Created with Pixso.
	</desc>
	<defs/>
	<path id="Vector" d="M10.5 0L3.5 0C1.57 0 0 1.57 0 3.5L0 10.5C0 12.42 1.57 14 3.5 14L10.5 14C12.42 14 14 12.42 14 10.5L14 3.5C14 1.57 12.42 0 10.5 0ZM6.99 9.91C5.38 9.91 4.08 8.61 4.08 7C4.08 5.38 5.38 4.08 6.99 4.08C8.61 4.08 9.91 5.38 9.91 7C9.91 8.61 8.61 9.91 6.99 9.91ZM9.91 3.2C9.91 3.69 10.3 4.08 10.79 4.08C11.27 4.08 11.66 3.69 11.66 3.2C11.66 2.72 11.27 2.33 10.79 2.33C10.3 2.33 9.91 2.72 9.91 3.2Z" fill="#FFFFFF" fill-opacity="1.000000" fill-rule="evenodd"/>
</svg>
