<svg width="112.000000" height="36.000000" viewBox="0 0 112 36" fill="none" xmlns="http://www.w3.org/2000/svg" xmlns:xlink="http://www.w3.org/1999/xlink">
	<desc>
			Created with Pixso.
	</desc>
	<defs>
		<clipPath id="clip2031_150">
			<rect id="IMAGE" rx="-0.500000" width="111.000000" height="35.000000" transform="translate(0.500000 0.500000)" fill="white" fill-opacity="0"/>
		</clipPath>
	</defs>
	<g clip-path="url(#clip2031_150)">
		<path id="Vector" d="M48.39 21.17C48.39 16.91 45.88 13.69 41.99 13.69C40.26 13.69 38.8 14.42 37.75 15.83L37.75 9L34 9L34 28.38L37.45 28.38L37.45 26.3C38.56 27.81 40.12 28.65 41.99 28.65C45.88 28.65 48.39 25.38 48.39 21.17ZM44.53 21.17C44.53 23.87 42.99 25.3 41.15 25.3C39.29 25.3 37.78 23.85 37.78 21.12C37.78 18.39 39.34 17.01 41.15 17.01C42.99 17.01 44.53 18.42 44.53 21.17ZM53.22 28.38L53.22 9L49.44 9L49.44 28.38L53.22 28.38ZM63.82 28.38L66.87 28.38L66.87 19.31C66.87 15.77 64.66 13.69 60.88 13.69C57.4 13.69 54.99 15.85 54.78 19.17L58.15 19.17C58.29 17.55 59.26 16.61 60.88 16.61C62.45 16.61 63.36 17.55 63.36 19.17L63.36 20.04C62.47 19.93 61.77 19.88 60.96 19.88C56.75 19.88 54.48 21.39 54.48 24.2C54.48 26.9 56.48 28.65 59.48 28.65C61.45 28.65 62.88 27.95 63.82 26.6L63.82 28.38ZM58.02 24.09C58.02 22.79 59.07 22.12 61.2 22.12C61.85 22.12 62.47 22.17 63.36 22.31L63.36 23.33C63.36 25.01 62.2 26.06 60.29 26.06C58.88 26.06 58.02 25.3 58.02 24.09ZM72.51 20.52C72.51 18.2 73.78 17.01 75.26 17.01C76.97 17.01 77.8 18.2 77.8 20.34L77.8 28.38L81.53 28.38L81.53 19.07C81.53 15.58 79.53 13.69 76.64 13.69C74.75 13.69 73.27 14.58 72.21 16.02L72.21 13.96L68.76 13.96L68.76 28.38L72.51 28.38L72.51 20.52ZM87.17 28.38L87.17 21.69L92.67 28.38L97.45 28.38L90.78 20.88L96.75 13.96L92.43 13.96L87.17 20.07L87.17 9L83.41 9L83.41 28.38L87.17 28.38ZM103.31 28.65C107.49 28.65 110.62 25.36 110.62 21.17C110.62 16.96 107.49 13.69 103.31 13.69C99.12 13.69 95.99 16.96 95.99 21.17C95.99 25.36 99.12 28.65 103.31 28.65ZM103.31 25.33C101.44 25.33 99.85 23.85 99.85 21.17C99.85 18.5 101.44 17.04 103.31 17.04C105.17 17.04 106.76 18.5 106.76 21.17C106.76 23.85 105.17 25.33 103.31 25.33Z" fill="#FFFFFF" fill-opacity="1.000000" fill-rule="nonzero"/>
		<path id="Vector" d="M17 6L22 6L22 23L17 23L17 6Z" fill="#FF7043" fill-opacity="1.000000" fill-rule="evenodd"/>
		<path id="Vector" d="M17 23L17 28L0 28L0 23L17 23Z" fill="#FF7043" fill-opacity="1.000000" fill-rule="evenodd"/>
		<path id="Vector" d="M22 6L22 11L5 11L5 6L22 6Z" fill="#FF7043" fill-opacity="1.000000" fill-rule="evenodd"/>
		<path id="Vector" d="M5 28L0 28L0 11L5 11L5 28Z" fill="#FF7043" fill-opacity="1.000000" fill-rule="evenodd"/>
	</g>
</svg>
