<svg width="15.352234" height="12.800293" viewBox="0 0 15.3522 12.8003" fill="none" xmlns="http://www.w3.org/2000/svg" xmlns:xlink="http://www.w3.org/1999/xlink">
	<desc>
			Created with Pixso.
	</desc>
	<defs/>
	<path id="Vector" d="M15.27 1.55C15.17 1.44 15.02 1.42 14.89 1.49C14.73 1.56 14.57 1.61 14.41 1.66C14.65 1.35 14.84 1.01 14.95 0.63C14.98 0.51 14.93 0.37 14.82 0.3C14.71 0.22 14.57 0.22 14.46 0.3C13.95 0.58 13.41 0.79 12.84 0.94C12.23 0.33 11.41 -0.01 10.56 0C9.87 0.01 9.21 0.22 8.64 0.59C7.42 1.28 7.21 2.86 7.3 3.84C5.04 3.64 2.96 2.55 1.54 0.79C1.48 0.7 1.38 0.64 1.28 0.63C1.17 0.64 1.07 0.7 1.02 0.8C0.36 1.94 0.42 3.36 1.16 4.44C1.06 4.38 0.96 4.3 0.86 4.22C0.76 4.12 0.62 4.1 0.5 4.16C0.38 4.21 0.3 4.34 0.32 4.47C0.34 5.67 0.93 6.77 1.92 7.44L1.67 7.37C1.55 7.34 1.42 7.37 1.33 7.46C1.25 7.56 1.23 7.69 1.28 7.8C1.78 8.94 2.76 9.79 3.96 10.12C2.87 10.75 1.61 11.01 0.35 10.87C0.2 10.86 0.06 10.95 0.01 11.09C-0.04 11.24 0.02 11.39 0.16 11.47C1.66 12.35 3.37 12.81 5.12 12.8C7.58 12.77 9.91 11.7 11.52 9.83C13.12 8.12 13.96 5.83 13.85 3.48C14.42 3.05 14.91 2.52 15.3 1.91C15.37 1.8 15.36 1.65 15.27 1.55Z" fill="#FFFFFF" fill-opacity="1.000000" fill-rule="nonzero"/>
</svg>
