<svg width="88.238037" height="22.283936" viewBox="0 0 88.238 22.2839" fill="none" xmlns="http://www.w3.org/2000/svg" xmlns:xlink="http://www.w3.org/1999/xlink">
	<desc>
			Created with Pixso.
	</desc>
	<defs/>
	<path id="Vector" d="M28.49 8.72C28.49 7.12 26.96 5.44 24.29 5.44C21.3 5.44 18.01 7.64 17.51 12.04C16.99 16.48 19.74 18.45 22.52 18.45C25.29 18.45 26.74 17.37 28.23 15.92C26.95 14.31 25.3 15.06 24.99 15.22C24.46 15.51 23.87 15.66 23.27 15.64C22.2 15.64 21.11 15.15 21.11 13.15C27.97 12.47 28.49 10.31 28.49 8.72L28.49 8.72ZM25.09 8.98C25.05 9.47 24.85 10.32 21.38 10.79C22.11 8.18 23.51 7.99 24.15 7.99C24.28 7.98 24.41 8 24.53 8.05C24.66 8.1 24.76 8.17 24.85 8.27C24.94 8.36 25.01 8.48 25.05 8.6C25.1 8.72 25.11 8.85 25.1 8.98L25.09 8.98ZM13.48 9.41L11.89 14.44L10.76 5.7C8.25 5.7 6.9 7.5 6.2 9.4L4.25 14.45L3.98 9.45C3.83 7.13 1.71 5.71 0 5.71L2.07 18.36C4.7 18.35 6.12 16.56 6.86 14.66L8.51 10.36C8.52 10.54 9.64 18.36 9.64 18.36C12.28 18.36 13.7 16.68 14.47 14.85L18.17 5.72C15.56 5.72 14.19 7.5 13.48 9.41L13.48 9.41ZM38.19 5.41C36.56 5.41 35.32 6.3 34.27 7.6L34.27 7.59L35.2 0C33.04 0 31.28 1.88 30.95 4.69L29.32 18.26C30.56 18.26 31.89 17.89 32.6 16.97C33.23 17.8 34.18 18.45 35.59 18.45C39.23 18.45 41.74 14.2 41.74 10.21C41.71 6.57 39.96 5.42 38.2 5.42L38.19 5.41ZM37.85 11.93C37.47 14.16 36.23 15.67 35.04 15.67C33.85 15.67 33.33 15.13 33.33 15.13C33.56 13.18 33.7 11.99 34.14 10.96C34.57 9.93 35.61 8.28 36.69 8.28C37.75 8.28 38.23 9.7 37.85 11.93L37.85 11.93ZM50.83 5.71L48.28 5.71L48.29 5.57C48.47 3.91 48.86 3.03 50.16 2.89C51.04 2.8 51.44 2.34 51.53 1.84L51.85 0.07C46.75 0.04 45.14 2.25 44.73 5.63L44.72 5.71L44.66 5.71C43.83 5.71 42.92 6.65 42.76 7.84L42.71 8.28L44.41 8.28L42.98 20.14L42.54 22.27C42.6 22.27 42.66 22.28 42.72 22.28C45.11 22.19 46.64 20.29 46.97 17.54L48.09 8.28L48.89 8.28C49.68 8.28 50.59 7.49 50.75 6.17L50.83 5.71ZM64.06 5.49C61.12 5.49 58.35 7.66 57.5 11.07C56.65 14.48 57.94 18.51 62.26 18.51C66.58 18.51 69.06 14.31 69.06 10.81C69.06 7.34 66.72 5.48 64.06 5.48L64.06 5.49ZM65.25 11.82C65.1 13.37 64.42 15.71 62.56 15.71C60.71 15.71 60.96 12.97 61.14 11.67C61.34 10.28 62.11 8.29 63.78 8.29C65.28 8.29 65.42 10.08 65.25 11.82L65.25 11.82ZM83.57 9.4L81.98 14.43C81.93 14.04 80.85 5.69 80.85 5.69C78.34 5.69 77 7.49 76.29 9.39L74.35 14.44C74.34 14.08 74.08 9.44 74.08 9.44C73.92 7.12 71.8 5.7 70.08 5.7L72.14 18.34C74.77 18.33 76.19 16.55 76.93 14.65L78.57 10.35C78.58 10.53 79.71 18.35 79.71 18.35C82.35 18.35 83.76 16.67 84.53 14.84L88.23 5.7C85.64 5.7 84.26 7.49 83.56 9.4L83.57 9.4ZM53.23 0.07L51.09 17.4L50.65 19.54C50.71 19.54 50.77 19.55 50.83 19.55C53.13 19.51 54.77 17.49 55.07 14.93L56.31 4.99C56.68 1.95 54.88 0.07 53.23 0.07L53.23 0.07Z" fill="#FFFFFF" fill-opacity="1.000000" fill-rule="nonzero"/>
</svg>
